<?xml version="1.0" encoding="UTF-8" standalone="no" ?>
<!DOCTYPE svg PUBLIC "-//W3C//DTD SVG 1.1//EN" "http://www.w3.org/Graphics/SVG/1.1/DTD/svg11.dtd">
<svg xmlns="http://www.w3.org/2000/svg" xmlns:xlink="http://www.w3.org/1999/xlink" version="1.1" width="1080" height="1080" viewBox="0 0 1080 1080" xml:space="preserve">
<desc>Created with Fabric.js 5.2.4</desc>
<defs>
</defs>
<g transform="matrix(1 0 0 1 540 540)" id="030ec5d0-5540-4738-bd85-ae7f42220dce"  >
<rect style="stroke: none; stroke-width: 1; stroke-dasharray: none; stroke-linecap: butt; stroke-dashoffset: 0; stroke-linejoin: miter; stroke-miterlimit: 4; fill: rgb(100,116,139); fill-rule: nonzero; opacity: 1;" vector-effect="non-scaling-stroke"  x="-540" y="-540" rx="0" ry="0" width="1080" height="1080" />
</g>
<g transform="matrix(1 0 0 1 540 540)" id="db7c8a43-6ac6-482f-810d-90cf336bae20"  >
</g>
<g transform="matrix(1 0 0 1 540 540)"  >
<g style="opacity: 0.63;" vector-effect="non-scaling-stroke"   >
		<g transform="matrix(1 0 0 1 0 0)"  >
<path style="stroke: none; stroke-width: 1; stroke-dasharray: none; stroke-linecap: butt; stroke-dashoffset: 0; stroke-linejoin: miter; stroke-miterlimit: 4; fill: rgb(239,239,239); fill-rule: nonzero; opacity: 1;" vector-effect="non-scaling-stroke"  transform=" translate(-640, -640)" d="M 0 0 C 422.4 0 844.8 0 1280 0 C 1280 422.4 1280 844.8 1280 1280 C 857.6 1280 435.2 1280 0 1280 C 0 857.6 0 435.2 0 0 Z" stroke-linecap="round" />
</g>
		<g transform="matrix(1 0 0 1 0.15 -139.84)"  >
<path style="stroke: none; stroke-width: 1; stroke-dasharray: none; stroke-linecap: butt; stroke-dashoffset: 0; stroke-linejoin: miter; stroke-miterlimit: 4; fill: rgb(239,239,239); fill-rule: nonzero; opacity: 1;" vector-effect="non-scaling-stroke"  transform=" translate(77.85, -102.16)" d="M 0 0 C 0.5165918 0.41121094 1.03318359 0.82242187 1.56542969 1.24609375 C 27.3496851 21.87349808 44.93284115 51.05642818 49.67041016 83.97705078 C 51.57685939 101.46272074 50.71612738 119.04984293 46 136 C 45.81808105 136.6712793 45.63616211 137.34255859 45.44873047 138.03417969 C 36.79187928 169.05649718 14.96024765 197.09499375 -12.97558594 213.13427734 C -17.55892002 215.62570229 -22.24824605 217.85114154 -27 220 C -28.51400391 220.70769531 -28.51400391 220.70769531 -30.05859375 221.4296875 C -59.94358555 234.20919262 -94.75155943 233.29870639 -124.80664062 221.87988281 C -156.81098106 209.04109798 -182.07096996 184.39906957 -195.9921875 152.9453125 C -202.90686727 136.45139987 -206.40322834 119.64551724 -206.3125 101.75 C -206.30686035 100.57123291 -206.3012207 99.39246582 -206.29541016 98.17797852 C -205.82382846 64.09102636 -190.76506281 32.20895892 -166.42089844 8.45947266 C -121.41239457 -33.31829141 -48.71516811 -39.30906937 0 0 Z" stroke-linecap="round" />
</g>
		<g transform="matrix(1 0 0 1 0.24 159.01)"  >
<path style="stroke: none; stroke-width: 1; stroke-dasharray: none; stroke-linecap: butt; stroke-dashoffset: 0; stroke-linejoin: miter; stroke-miterlimit: 4; fill: rgb(3,23,39); fill-rule: nonzero; opacity: 1;" vector-effect="non-scaling-stroke"  transform=" translate(-121.24, -133.01)" d="M 0 0 C 3.64331077 1.61924923 6.20425519 3.40851039 8 7 C 8.75163293 10.87090959 8.87212819 14.34124638 7.00390625 17.89453125 C 3.56836785 22.20598595 -0.82942206 25.14469306 -5.3671875 28.19921875 C -14.27280805 34.2904518 -22.16943607 41.61472473 -30 49 C -30.73347656 49.6909375 -31.46695313 50.381875 -32.22265625 51.09375 C -86.11901917 103.38286552 -91.86210044 170.31232799 -93 242 C 48.24 242 189.48 242 335 242 C 333.68398946 163.03936789 325.25271974 101.22625344 267.90625 44.9296875 C 260.92341159 38.23694055 253.44041328 32.38375 245.62890625 26.69140625 C 236.49600814 19.99201628 236.49600814 19.99201628 235 17 C 234.58051374 13.6141466 234.50585478 10.37931569 235 7 C 237.4375 3.9375 237.4375 3.9375 240 2 C 240.33 1.67 240.66 1.34 241 1 C 246.83574458 -0.05667803 251.2686861 0.70918425 256.3125 3.8125 C 262.29993718 7.99352908 267.85378686 12.72095884 273.33422852 17.53857422 C 274.50101077 18.56222343 275.67391808 19.57891367 276.85131836 20.59033203 C 291.20817192 32.97656726 304.09462036 46.4835953 315 62 C 315.44102051 62.61762207 315.88204102 63.23524414 316.33642578 63.87158203 C 348.83707484 109.63279058 359.57734082 161.83111664 359.5559082 217.04223633 C 359.55559872 221.26988306 359.59716288 225.49606994 359.64822483 229.72336674 C 359.68159103 233.01861897 359.68766665 236.31351147 359.68607903 239.60891533 C 359.68959499 241.16898243 359.70272795 242.72906126 359.72607613 244.2889576 C 359.91055946 257.83705495 359.91055946 257.83705495 356.14428711 262.43920898 C 352.09240525 266.31539499 347.80909663 266.1464943 342.48203659 266.1398077 C 341.31754477 266.14423484 341.31754477 266.14423484 340.12952787 266.14875141 C 337.50665013 266.15747035 334.88381636 266.15902558 332.26092529 266.16062927 C 330.37004054 266.16535833 328.4791568 266.17050897 326.58827424 266.17604691 C 321.37524652 266.1899784 316.1622258 266.19754375 310.94918418 266.2040199 C 306.48212402 266.21038368 302.0150754 266.22045474 297.54802242 266.23058056 C 282.82987458 266.26392834 268.11171972 266.28542899 253.39354646 266.30378041 C 249.56278583 266.30857384 245.73202548 266.31355734 241.90126514 266.31858563 C 218.12677733 266.34955221 194.35228755 266.37624953 170.57778549 266.39300442 C 165.06927231 266.39694171 159.56075918 266.40095354 154.05224609 266.4050293 C 153.36787727 266.40553096 152.68350845 266.40603263 151.97840117 266.4065495 C 129.78499345 266.42297094 107.59169591 266.46143264 85.3983424 266.5123164 C 61.93979906 266.56600298 38.4813471 266.5977202 15.02273488 266.6052013 C 2.23285749 266.60986936 -10.55683748 266.6246816 -23.3466568 266.6649456 C -34.23648075 266.6991861 -45.1260894 266.7132091 -56.01596412 266.70052146 C -61.57435817 266.69468083 -67.13229651 266.69865757 -72.69062233 266.7286911 C -77.77731968 266.7559526 -82.86323539 266.75563117 -87.94994935 266.73318065 C -89.79184087 266.72994479 -91.63378378 266.736901 -93.47558942 266.75497787 C -108.96595639 266.89781715 -108.96595639 266.89781715 -113.57793808 263.14198399 C -117.02304366 258.67287175 -117.13062364 255.77044997 -117.16113281 250.26318359 C -117.16609772 249.58113861 -117.17106262 248.89909363 -117.17617798 248.19638062 C -117.19081838 245.93038922 -117.19761543 243.66446854 -117.203125 241.3984375 C -117.20595238 240.61598286 -117.20877975 239.83352821 -117.21169281 239.02736282 C -117.22671614 234.86182569 -117.23591739 230.69632327 -117.24023438 226.53076172 C -117.24456986 223.13286303 -117.25826157 219.73522533 -117.28125 216.33740234 C -117.4400973 192.37389167 -117.2989493 168.56553418 -111.25 145.1875 C -110.99323486 144.16309814 -110.73646973 143.13869629 -110.47192383 142.08325195 C -97.21827973 90.72288978 -66.04055541 41.39023742 -22.63232422 10.18359375 C -20.90874433 8.93383077 -19.22292268 7.64137709 -17.53515625 6.34375 C -7.08780136 -1.51881458 -7.08780136 -1.51881458 0 0 Z" stroke-linecap="round" />
</g>
		<g transform="matrix(1 0 0 1 0.01 -140.19)"  >
<path style="stroke: none; stroke-width: 1; stroke-dasharray: none; stroke-linecap: butt; stroke-dashoffset: 0; stroke-linejoin: miter; stroke-miterlimit: 4; fill: rgb(3,22,39); fill-rule: nonzero; opacity: 1;" vector-effect="non-scaling-stroke"  transform=" translate(42.99, -145.81)" d="M 0 0 C 1.13308594 0.33644531 2.26617188 0.67289062 3.43359375 1.01953125 C 25.08877373 7.75719911 44.43307394 19.60590873 61 35 C 61.74805908 35.69029297 61.74805908 35.69029297 62.51123047 36.39453125 C 89.82243248 61.86174548 107.27997596 99.17373716 109.12426758 136.51611328 C 109.67622133 154.25723968 108.13566241 171.94309408 103 189 C 102.66355469 190.15242187 102.32710937 191.30484375 101.98046875 192.4921875 C 90.7089717 228.75700408 64.46818473 260.93823549 31.234375 279.3515625 C -5.86883354 298.26165187 -48.50696701 304.04434501 -88.68261719 291.53564453 C -127.69482665 278.69354711 -158.67058065 252.08158278 -178 216 C -178.44730469 215.22140625 -178.89460938 214.4428125 -179.35546875 213.640625 C -186.39067876 200.79965916 -190.6241485 185.38895982 -193 171 C -193.20367187 169.78828125 -193.40734375 168.5765625 -193.6171875 167.328125 C -199.03494393 130.3686359 -190.69573974 91.11294443 -168.890625 60.48828125 C -168.26671875 59.66714844 -167.6428125 58.84601563 -167 58 C -166.35546875 57.14792969 -165.7109375 56.29585938 -165.046875 55.41796875 C -156.33679288 44.2560328 -146.83851833 33.52141122 -135.4375 25.0625 C -134.74495117 24.54671387 -134.05240234 24.03092773 -133.33886719 23.49951172 C -126.84251879 18.74510978 -120.11987522 14.75396264 -113 11 C -111.99453125 10.45730469 -110.9890625 9.91460937 -109.953125 9.35546875 C -76.93602242 -7.89553061 -35.45660372 -11.27468982 0 0 Z M -138.01171875 59.1640625 C -163.26484174 87.54240033 -172.93374309 121.59064595 -171 159 C -169.04116459 184.47958838 -157.46576003 209.7223948 -141 229 C -140.18273437 229.99128906 -139.36546875 230.98257813 -138.5234375 232.00390625 C -117.89923018 255.8993247 -88.06403105 270.18745007 -57 274 C -20.90124792 276.64333172 12.19844113 267.22847907 40 244 C 40.51304687 243.57348145 41.02609375 243.14696289 41.5546875 242.70751953 C 59.47690277 227.59986535 71.59155649 208.10185646 79 186 C 79.30421875 185.20722656 79.6084375 184.41445313 79.921875 183.59765625 C 91.23950987 153.513535 85.88578771 118.55528542 73 90 C 59.13561965 61.10179131 33.86626613 37.63164833 3.890625 26.34375 C -0.25303804 24.887754 -4.42364663 23.52970619 -8.625 22.25 C -9.26872559 22.05116211 -9.91245117 21.85232422 -10.57568359 21.64746094 C -21.28486647 18.5420376 -32.14161148 17.63118167 -43.25 17.6875 C -44.42876709 17.69313965 -45.60753418 17.6987793 -46.82202148 17.70458984 C -81.44203484 18.18354626 -114.46035412 33.79143402 -138.01171875 59.1640625 Z" stroke-linecap="round" />
</g>
		<g transform="matrix(1 0 0 1 -89 -230.5)"  >
<path style="stroke: none; stroke-width: 1; stroke-dasharray: none; stroke-linecap: butt; stroke-dashoffset: 0; stroke-linejoin: miter; stroke-miterlimit: 4; fill: rgb(229,231,232); fill-rule: nonzero; opacity: 1;" vector-effect="non-scaling-stroke"  transform=" translate(6, -7.5)" d="M 0 0 C 0.66 0.33 1.32 0.66 2 1 C -2.62 5.62 -7.24 10.24 -12 15 C -12.66 14.67 -13.32 14.34 -14 14 C -12.60919892 12.41224451 -11.21211596 10.82999061 -9.8125 9.25 C -8.64654297 7.92742187 -8.64654297 7.92742187 -7.45703125 6.578125 C -5.11544754 4.12113732 -2.69841735 2.05137234 0 0 Z" stroke-linecap="round" />
</g>
		<g transform="matrix(1 0 0 1 -144 69.5)"  >
<path style="stroke: none; stroke-width: 1; stroke-dasharray: none; stroke-linecap: butt; stroke-dashoffset: 0; stroke-linejoin: miter; stroke-miterlimit: 4; fill: rgb(226,228,229); fill-rule: nonzero; opacity: 1;" vector-effect="non-scaling-stroke"  transform=" translate(3, -3.5)" d="M 0 0 C -1.39332574 3.36720387 -2.9789286 4.9859524 -6 7 C -6 4 -6 4 -4.125 1.8125 C -2 0 -2 0 0 0 Z" stroke-linecap="round" />
</g>
</g>
</g>
<g transform="matrix(NaN NaN NaN NaN 0 0)"  >
<g style=""   >
</g>
</g>
<g transform="matrix(NaN NaN NaN NaN 0 0)"  >
<g style=""   >
</g>
</g>
</svg>