<?xml version="1.0" encoding="UTF-8"?>
<svg xmlns="http://www.w3.org/2000/svg" version="1.1" viewBox="0 0 300 300">
  <defs>
    <style>
      .cls-1 {
        fill: #1c1c1c;
      }

      .cls-2 {
        fill: #efefef;
      }
    </style>
  </defs>
  <!-- Generator: Adobe Illustrator 28.6.0, SVG Export Plug-In . SVG Version: 1.2.0 Build 709)  -->
  <g>
    <g id="Layer_3">
      <rect class="cls-1" width="300" height="300"/>
    </g>
    <g id="Layer_2">
      <path class="cls-2" d="M122,138v8h-20.7c-12.6-.2-19.5-.5-17.5-1,1.9-.4,3.9-1.3,4.5-1.9.8-.8,1.3-6,1.5-13.7.4-14.4-.6-17.4-5.8-17.4s-3-.5-3-1,5-1,13-1,13,.4,13,1-1.5,1-3.4,1c-6.1,0-6.6,1.3-6.6,18.1v14.9h5.5c3.1,0,7.1-.6,8.9-1.4,3.4-1.4,6.9-6.1,8.1-10.9,1.3-5.2,2.5-2.7,2.5,5.3Z"/>
      <path class="cls-2" d="M166.5,145.3c-3.7-.9-5.3-3.4-12.6-19.4-4-8.7-7.6-15.9-8-15.9-.8,0-2.7,4-10,20.5-4.7,10.6-5.4,11.7-9.4,13.8-3,1.6-2.9,1.6,5,1.6s7.9,0,5.3-1.5c-2.8-1.5-3.3-3-2.2-7.2.6-2,1.2-2.2,8.3-2.2h7.6l1.7,4c1.8,4.4,1.2,5.5-3.7,6.3-1.6.2,2.2.4,8.5.4,6.3,0,10.6-.2,9.5-.4ZM136.2,134l3.1-7.5c1.7-4.1,3.4-7.2,3.8-6.7.4.4,2.1,3.7,3.7,7.4l3.1,6.8h-13.7Z"/>
      <path class="cls-2" d="M218.2,112.6c-2.4.9-3.6,3-8.4,15-3.2,7.6-6.2,15.1-6.7,16.6-.6,1.6-1.4,2.8-1.8,2.8s-2.8-5.8-5.3-13c-2.5-7.1-4.7-12.6-5-12.2-.3.4-2.8,6.2-5.5,12.9-2.7,6.8-5.2,12.3-5.5,12.3s-3.1-6.8-6.1-15.2c-5.7-15.9-7.8-19.8-11-19.8s-1.9-.5-1.9-1,3.8-1,9.5-1,9.5.4,9.5,1-.9,1-1.9,1-2.2.4-2.5.9c-.6.9,6,20.8,7.4,22.4.7.9,7-14.4,7-17.2s-3.6-6.1-5.5-6.1-1.5-.5-1.5-1,4-1,10-1,10,.4,10,.9-1.2,1.1-2.7,1.3c-4,.4-3.9,2.7.5,14.5l3.7,10.2,3.8-10c4.4-11.4,4.5-14.3.5-14.7-5.8-.7-2.5-2.2,4.7-2.2s9.4.8,4.7,2.6Z"/>
      <path class="cls-2" d="M128,156c0,.5-1.1,1-2.3,1-4.9,0-5.6,2.3-5.9,19.3-.2,8.6-.4,15.7-.5,15.7-.2,0-7.2-7.1-15.7-15.8l-15.5-15.7v12.1c0,13.7.6,15.5,6.9,17.3,2.8.7,1.5.9-7,.9s-10.1,0-7.3-1.1c1.8-.7,3.7-1.7,4.3-2.3s1.2-6,1.2-14.2c0-14.1-.5-16.2-4.8-16.2s-2.4-.5-2.4-1,3-1,7.1-1h7.2l12.3,12.7,12.3,12.8v-8.7c0-10.2-1.1-13.7-5.1-14.5-5.7-1.1-2.5-2.3,6.2-2.3s9,.4,9,1Z"/>
      <path class="cls-2" d="M172,203.2c0,.5-2.7.8-6,.8-5.4,0-6-.2-6.5-2.3-1.4-6.6-5.5-29-5.3-29.1,1.2-.7,10.5-3.4,11.2-3.2.5,0,2.2,7.6,3.7,16.7,1.6,9,2.9,16.7,2.9,17.1Z"/>
      <path class="cls-2" d="M152.3,174.1c0,.8-1.4,7.8-2.8,15.6l-2.7,14.3h-5.9c-4.8,0-5.9-.3-5.9-1.7s4.8-30.1,5.5-32c.6-1.7,12.1,1.9,11.8,3.8Z"/>
      <path class="cls-2" d="M171,155.8c0,.4-1.6,3-3.5,5.7-2.8,3.9-4.4,5.1-7,5.6-2.5.4-3.9.1-5-1.1-2-2.2-1.9-2.8,1.1-7.2,2.6-3.7,2.9-3.8,8.5-3.8s5.9.3,5.9.8Z"/>
      <path class="cls-2" d="M151.7,165.4c-1.2,1.8-2.2,2.1-5.1,1.8-2.9-.3-4.2-1.3-7.1-5.3-1.9-2.7-3.5-5.4-3.5-5.9s2.6-1,5.8-1c5.5,0,5.8.2,8.5,4.1,2.6,3.7,2.7,4.3,1.4,6.3Z"/>
      <path class="cls-2" d="M223,155v9.5c0,5.7-.4,9.5-1,9.5s-1-1.2-1-2.7c0-6.8-6.5-14.3-12.4-14.3h-2.6v14.7c0,8.2.4,15.4.9,16.1.4.8,3.3,1.7,6.2,2.2,3.9.5.7.7-11.1.7s-14.4-.3-11.9-.6c7.8-1.1,7.9-1.3,7.9-18.2v-14.9h-3.6c-4.9,0-9.5,4.8-11.6,12.1l-1.6,5.4v-9.8c-.1,0-.2-9.7-.2-9.7h42Z"/>
    </g>
  </g>
</svg>